<?xml version="1.0" standalone="no"?>
<!DOCTYPE svg PUBLIC "-//W3C//DTD SVG 20010904//EN"
 "http://www.w3.org/TR/2001/REC-SVG-20010904/DTD/svg10.dtd">
<svg version="1.0" xmlns="http://www.w3.org/2000/svg"
 width="268.000000pt" height="268.000000pt" viewBox="0 0 268.000000 268.000000"
 preserveAspectRatio="xMidYMid meet">

<g transform="translate(0.000000,268.000000) scale(0.100000,-0.100000)"
fill="#000000" stroke="none">
<path d="M1150 2664 c-19 -3 -93 -11 -165 -19 -283 -32 -613 -139 -808 -262
l-40 -25 6 -211 c12 -431 68 -696 225 -1057 20 -47 48 -105 62 -130 15 -25 29
-53 33 -62 12 -33 153 -243 217 -323 164 -205 389 -403 607 -533 l53 -32 52
31 c86 50 127 79 248 175 404 321 697 789 826 1319 45 185 64 355 71 612 l6
211 -44 28 c-186 117 -508 223 -789 259 -120 16 -487 28 -560 19z m371 -374
c99 -34 161 -81 208 -160 32 -53 25 -60 -8 -9 -78 120 -187 169 -381 169 -194
0 -303 -49 -381 -169 -16 -25 -29 -40 -29 -35 0 17 55 97 86 126 51 47 135 82
244 102 52 10 202 -4 261 -24z m-76 -74 c28 -7 62 -19 75 -26 29 -14 110 -90
110 -102 0 -5 -14 7 -31 26 -17 19 -56 48 -87 63 -52 26 -66 28 -172 28 -106
0 -120 -2 -172 -28 -31 -15 -70 -44 -87 -63 -17 -19 -31 -31 -31 -26 0 12 81
88 110 102 74 39 197 50 285 26z m-862 -90 c99 -19 181 -59 237 -115 61 -62
89 -123 99 -224 9 -95 31 -147 81 -197 34 -34 39 -36 100 -35 l65 0 9 53 c5
28 13 52 17 52 5 0 9 33 9 73 l1 72 27 -55 27 -55 85 0 85 0 27 55 27 55 1
-72 c0 -40 4 -73 9 -73 4 0 12 -24 17 -52 l9 -53 48 1 c26 0 47 -4 47 -8 0
-18 64 28 92 67 41 55 49 78 59 172 5 48 18 103 31 130 30 65 101 134 171 167
63 30 182 56 254 56 l45 0 -33 -27 c-34 -29 -79 -118 -97 -193 -12 -50 -29
-197 -38 -332 l-6 -87 -36 -6 c-92 -15 -177 -63 -227 -129 -18 -23 -32 -61
-42 -114 l-16 -80 -40 -5 c-26 -4 -47 -14 -59 -29 -14 -19 -20 -20 -27 -9 -7
11 -14 9 -34 -10 -13 -13 -33 -29 -43 -35 -28 -15 -76 -118 -82 -175 -4 -40
-9 -52 -26 -59 -50 -19 -90 -89 -102 -178 -3 -29 -10 -52 -14 -52 -4 0 -11 24
-14 54 -9 71 -43 135 -86 164 -30 20 -36 30 -42 75 -3 28 -11 53 -17 55 -6 2
-9 8 -6 13 10 14 -34 88 -63 106 -15 10 -30 23 -35 30 -9 15 -110 53 -141 53
-22 0 -25 7 -36 66 -14 83 -38 131 -86 174 -42 36 -128 80 -159 80 -59 1 -63
6 -69 98 -9 135 -26 282 -38 332 -18 75 -63 164 -97 193 l-33 27 45 0 c25 0
79 -6 120 -14z m848 3 c21 -7 51 -26 66 -42 l28 -31 -33 27 c-71 57 -234 57
-304 -1 -29 -23 -31 -24 -13 -3 46 55 164 77 256 50z m-41 -134 c37 -19 50
-43 50 -91 0 -27 -7 -46 -27 -66 -37 -38 -53 -36 -53 7 0 28 -4 35 -20 35 -16
0 -20 -7 -20 -35 0 -43 -16 -45 -53 -7 -46 47 -35 126 21 156 35 20 66 20 102
1z m-40 -180 c0 -30 -4 -55 -10 -55 -5 0 -10 25 -10 55 0 30 5 55 10 55 6 0
10 -25 10 -55z m-250 -735 c0 -5 -2 -10 -4 -10 -3 0 -8 5 -11 10 -3 6 -1 10 4
10 6 0 11 -4 11 -10z"/>
<path d="M1256 1295 c4 -8 8 -15 10 -15 2 0 4 7 4 15 0 8 -4 15 -10 15 -5 0
-7 -7 -4 -15z"/>
<path d="M1280 1295 c0 -8 2 -15 4 -15 2 0 6 7 10 15 3 8 1 15 -4 15 -6 0 -10
-7 -10 -15z"/>
<path d="M1321 1294 c0 -11 3 -14 6 -6 3 7 2 16 -1 19 -3 4 -6 -2 -5 -13z"/>
<path d="M1341 1293 c0 -12 2 -13 6 -5 4 10 8 10 19 1 11 -9 14 -8 14 5 0 9
-8 16 -20 16 -13 0 -20 -6 -19 -17z"/>
<path d="M1390 1295 c0 -6 6 -12 13 -12 8 0 14 6 14 12 0 6 -6 12 -14 12 -7 0
-13 -6 -13 -12z"/>
<path d="M1431 1294 c0 -11 3 -14 6 -6 3 7 2 16 -1 19 -3 4 -6 -2 -5 -13z"/>
<path d="M1244 1229 c-5 -8 -3 -9 6 -4 10 6 12 4 7 -8 -3 -10 -2 -17 3 -17 13
0 13 27 1 35 -5 3 -13 0 -17 -6z"/>
<path d="M1284 1219 c0 -10 4 -19 8 -19 4 0 8 6 8 14 0 8 -4 17 -8 20 -4 2 -8
-4 -8 -15z"/>
<path d="M1322 1220 c0 -14 2 -19 5 -12 2 6 2 18 0 25 -3 6 -5 1 -5 -13z"/>
<path d="M1390 1223 c0 -15 -2 -16 -10 -3 -8 12 -11 13 -19 1 -6 -9 -10 -10
-14 -2 -4 8 -5 8 -3 0 1 -7 14 -13 29 -15 21 -2 27 2 27 17 0 10 -2 19 -5 19
-3 0 -5 -8 -5 -17z"/>
<path d="M1414 1219 c0 -10 4 -19 8 -19 4 0 8 6 8 14 0 8 -4 17 -8 20 -4 2 -8
-4 -8 -15z"/>
<path d="M1314 1156 c-4 -10 -2 -22 4 -28 8 -8 13 -7 18 6 4 10 2 22 -4 28 -8
8 -13 7 -18 -6z m13 -18 c-3 -8 -6 -5 -6 6 -1 11 2 17 5 13 3 -3 4 -12 1 -19z"/>
<path d="M1385 1145 c0 -32 5 -31 30 3 11 16 13 22 4 15 -10 -8 -19 -9 -25 -3
-5 5 -9 0 -9 -15z"/>
<path d="M1254 1140 c0 -11 4 -20 8 -20 4 0 8 9 8 20 0 11 -4 20 -8 20 -4 0
-8 -9 -8 -20z"/>
<path d="M1287 1140 c-3 -11 -1 -20 4 -20 5 0 9 9 9 20 0 11 -2 20 -4 20 -2 0
-6 -9 -9 -20z"/>
<path d="M1350 1140 c0 -11 4 -20 9 -20 5 0 7 9 4 20 -3 11 -7 20 -9 20 -2 0
-4 -9 -4 -20z"/>
</g>
</svg>
